{"title":"The Simpsons S22 2010 HDTV Xvid MP3 Dual","uid":10140147,"size":4516175071,"categoryP":"video","categoryS":"tv_shows","magnet":"?xt=urn:btih:8e868c4ac630fc94d4b48028f318b27dde8dbf02&amp;dn=The+Simpsons+S22+2010+HDTV+Xvid+MP3+Dual&amp;tr=udp%3A%2F%2Ftracker.openbittorrent.com%3A80&amp;tr=udp%3A%2F%2Fopen.demonii.com%3A1337&amp;tr=udp%3A%2F%2Ftracker.coppersurfer.tk%3A6969&amp;tr=udp%3A%2F%2Fexodus.desync.com%3A6969","seeders":4,"leechers":0,"uploader":"Alemao99","files":47,"time":1399990975,"description":"The Simpsons is a series which portrays the day-to-day life of an American family. Created by cartoonist Matt Groening for the FOX station, was first aired in 1989. Through the protagonists Homer, Marge, Bart, Lisa and Maggie, the program is critical to human behavior, society and the American way of life. \n\nOriginal title: The Simpsons S22\nTitle in Brazil: The Simpsons \nDirected by: Matt Groening \nRelease Year: 2010\nDuration: 22 minutes per episode \nGenre: Animation / Comedy \nImdb: http://www.imdb.com/title/tt0096697/ \n\nSize: 4.21 GB\nResolution: 624 x 352\nQuality: HDTV\nVideo Codec: XviD \nAudio Codec: MPEG Layer-3 (MP3) \nExtension: AVI \nLanguage: Portuguese / English \nCaption: Portuguese\n\nVideo\n\nID                             : 0\nFormat                         : MPEG-4 Visual\nFormat profile                 : Advanced Simple@L5\nFormat settings, BVOP          : 2\nFormat settings, QPel          : No\nFormat settings, GMC           : No warppoints\nFormat settings, Matrix        : Default (H.263)\nCodec ID                       : XVID\nCodec ID/Hint                  : XviD\nDuration                       : 21mn 55s\nBit rate                       : 985 Kbps\nWidth                          : 624 pixels\nHeight                         : 352 pixels\nDisplay aspect ratio           : 16:9\nFrame rate                     : 23.976 fps\nColor space                    : YUV\nChroma subsampling             : 4:2:0\nBit depth                      : 8 bits\nScan type                      : Progressive\nCompression mode               : Lossy\nBits/(Pixel*Frame)             : 0.187\nStream size                    : 155 MiB (78%)\nWriting library                : XviD 1.2.1 (UTC 2008-12-04)\n\n\n\nAudio #1\n\nID                             : 1\nFormat                         : MPEG Audio\nFormat version                 : Version 1\nFormat profile                 : Layer 3\nMode                           : Joint stereo\nMode extension                 : MS Stereo\nCodec ID                       : 55\nCodec ID/Hint                  : MP3\nDuration                       : 21mn 55s\nBit rate mode                  : Constant\nBit rate                       : 128 Kbps\nChannel(s)                     : 2 channels\nSampling rate                  : 48.0 KHz\nCompression mode               : Lossy\nStream size                    : 20.1 MiB (10%)\nAlignment                      : Split accross interleaves\nInterleave, duration           : 42 ms (1.00 video frame)\nInterleave, preload duration   : 500 ms\nWriting library                : LAME3.98.2\n\n\nAudio #2\n\nID                             : 2\nFormat                         : MPEG Audio\nFormat version                 : Version 1\nFormat profile                 : Layer 3\nMode                           : Joint stereo\nMode extension                 : MS Stereo\nCodec ID                       : 55\nCodec ID/Hint                  : MP3\nDuration                       : 21mn 55s\nBit rate mode                  : Constant\nBit rate                       : 128 Kbps\nChannel(s)                     : 2 channels\nSampling rate                  : 48.0 KHz\nCompression mode               : Lossy\nStream size                    : 20.1 MiB (10%)\nAlignment                      : Split accross interleaves\nInterleave, duration           : 42 ms (1.00 video frame)\nInterleave, preload duration   : 500 ms\nWriting library                : LAME3.98.2\n\nSEED PLEASE\n\nENJOY...","torrent":{"xt":"urn:btih:8e868c4ac630fc94d4b48028f318b27dde8dbf02","amp;dn":"The+Simpsons+S22+2010+HDTV+Xvid+MP3+Dual","amp;tr":["udp%3A%2F%2Ftracker.openbittorrent.com%3A80","udp%3A%2F%2Fopen.demonii.com%3A1337","udp%3A%2F%2Ftracker.coppersurfer.tk%3A6969","udp%3A%2F%2Fexodus.desync.com%3A6969"],"infoHash":"8e868c4ac630fc94d4b48028f318b27dde8dbf02","infoHashBuffer":{"type":"Buffer","data":[142,134,140,74,198,48,252,148,212,180,128,40,243,24,178,125,222,141,191,2]},"announce":[],"urlList":[]}}